# xmcd
#
# Track frame offsets: 
#        150
#        20450
#        36457
#        56600
#        75762
#        95900
#        110937
#        127287
#        151475
#
# Disc length: 2572 seconds
#
# Revision: 3
# Processed by: cddbd v1.5.2PL0 Copyright (c) Steve Scherf et al.
# Submitted via: ExactAudioCopy v0.95b4
#
DISCID=7b0a0a09
DTITLE=Rory Block - Angel of Mercy
DYEAR=1900
DGENRE=Rock
TTITLE0=Angel Of Mercy
TTITLE1=It Ain't Right
TTITLE2=I'll Be Gone
TTITLE3=Who Was Calling
TTITLE4=Somebody's Baby
TTITLE5=Big Bad Agent Man
TTITLE6=You Deserve The Best
TTITLE7=Love Without The Heart
TTITLE8=A Father And Two Sons
EXTD=
EXTT0=
EXTT1=
EXTT2=
EXTT3=
EXTT4=
EXTT5=
EXTT6=
EXTT7=
EXTT8=
PLAYORDER=
